<?xml version="1.0" standalone="no"?>
<!DOCTYPE svg PUBLIC "-//W3C//DTD SVG 20010904//EN"
 "http://www.w3.org/TR/2001/REC-SVG-20010904/DTD/svg10.dtd">
<svg version="1.0" xmlns="http://www.w3.org/2000/svg"
 width="1265.000000pt" height="708.000000pt" viewBox="0 0 1265.000000 708.000000"
 preserveAspectRatio="xMidYMid meet">

<g transform="translate(0.000000,708.000000) scale(0.100000,-0.100000)"
fill="#000000" stroke="none">
<path d="M3566 5573 c-67 -65 -661 -642 -1319 -1282 -884 -860 -1200 -1173
-1208 -1198 -9 -27 -7 -40 8 -70 10 -21 29 -43 43 -50 35 -18 586 -18 617 0
12 7 456 435 988 952 531 517 976 945 988 952 32 18 78 16 108 -5 14 -9 433
-413 929 -897 497 -484 935 -909 973 -945 l70 -65 291 -3 c206 -2 298 1 318 9
50 21 73 96 45 145 -7 11 -124 130 -262 264 -137 133 -274 266 -303 294 -57
56 -73 94 -60 143 6 23 138 158 526 535 284 277 528 512 542 521 29 20 76 22
107 4 13 -7 457 -435 989 -952 531 -517 975 -945 987 -952 31 -18 582 -18 617
0 14 7 33 29 43 50 15 30 17 43 8 70 -8 25 -325 338 -1213 1203 -1575 1533
-1427 1394 -1484 1394 l-47 0 -166 -163 c-711 -698 -1315 -1279 -1338 -1288
-68 -25 -59 -33 -676 568 -320 312 -655 638 -743 725 l-161 158 -47 0 c-46 0
-49 -2 -170 -117z"/>
<path d="M3366 4188 c-12 -17 -16 -50 -16 -138 0 -163 -3 -160 156 -160 69 0
134 5 145 10 17 10 19 22 19 145 0 108 -3 137 -16 149 -12 13 -40 16 -144 16
-122 0 -130 -1 -144 -22z"/>
<path d="M3818 4199 c-16 -9 -18 -27 -18 -147 0 -94 4 -142 12 -150 17 -17
269 -17 286 0 8 8 12 56 12 150 0 126 -2 138 -19 148 -25 13 -250 13 -273 -1z"/>
<path d="M6574 4185 c-22 -33 -17 -271 6 -285 20 -13 256 -13 281 0 17 10 19
22 19 145 0 108 -3 137 -16 149 -12 13 -40 16 -144 16 -126 0 -130 -1 -146
-25z"/>
<path d="M7022 4198 c-8 -8 -12 -56 -12 -148 0 -92 4 -140 12 -148 15 -15 251
-17 279 -2 17 10 19 23 19 150 0 127 -2 140 -19 150 -28 15 -264 13 -279 -2z"/>
<path d="M3360 3759 c-18 -33 -9 -267 10 -279 23 -15 273 -13 288 2 13 13 18
252 6 282 -5 14 -28 16 -150 16 -135 0 -144 -1 -154 -21z"/>
<path d="M3807 3773 c-13 -12 -8 -278 5 -291 17 -17 269 -17 286 0 13 13 18
252 6 282 -5 14 -28 16 -148 16 -79 0 -146 -3 -149 -7z"/>
<path d="M6570 3761 c-5 -11 -10 -72 -10 -136 0 -64 5 -125 10 -136 10 -17 22
-19 148 -19 94 0 142 4 150 12 8 8 12 54 12 143 0 89 -4 135 -12 143 -8 8 -56
12 -150 12 -126 0 -138 -2 -148 -19z"/>
<path d="M7017 3773 c-4 -3 -7 -70 -7 -149 0 -120 2 -143 16 -148 30 -12 269
-7 282 6 13 13 18 252 6 282 -5 14 -28 16 -148 16 -79 0 -146 -3 -149 -7z"/>
<path d="M6113 2940 c-54 -11 -79 -25 -95 -53 -10 -17 -14 -165 -19 -627 -4
-408 -10 -633 -19 -690 -7 -47 -13 -162 -14 -257 -1 -192 4 -209 75 -246 50
-26 206 -21 246 9 49 37 52 53 63 360 10 269 12 292 34 339 68 147 199 239
289 201 72 -29 72 -33 72 -473 0 -382 1 -392 21 -420 32 -43 61 -53 152 -53
84 0 137 15 163 46 12 15 24 416 20 692 -4 307 -65 455 -216 524 -66 30 -223
32 -303 5 -65 -23 -145 -82 -194 -143 l-38 -46 0 380 0 380 -25 30 c-37 45
-118 60 -212 42z"/>
<path d="M9169 2940 c-107 -18 -112 -31 -138 -340 -33 -394 -68 -1052 -73
-1373 -1 -104 1 -121 19 -145 25 -33 78 -50 158 -51 82 -1 133 13 163 43 29
28 29 31 52 686 11 322 29 600 55 864 21 212 20 238 -10 274 -38 45 -118 60
-226 42z"/>
<path d="M988 2861 c-50 -16 -98 -52 -127 -94 -80 -118 -428 -867 -599 -1292
-120 -299 -131 -348 -90 -400 30 -38 76 -55 151 -55 85 0 159 23 190 59 13 16
54 114 93 225 l69 196 35 7 c19 4 172 8 339 8 l303 0 43 -120 c61 -172 122
-306 154 -338 31 -31 81 -46 155 -47 68 0 123 19 162 56 49 45 47 94 -7 205
-22 46 -64 143 -93 214 l-52 130 29 41 c23 33 29 52 29 95 -1 81 -46 129 -123
129 l-35 0 -57 163 c-31 89 -98 283 -148 430 -50 147 -101 282 -113 300 -34
50 -121 89 -208 93 -40 2 -85 -1 -100 -5z m125 -563 c25 -79 65 -204 87 -278
22 -74 43 -142 45 -151 5 -14 -18 -16 -215 -15 -121 1 -220 5 -220 9 0 12 142
358 185 452 20 44 41 90 46 103 5 12 12 22 17 22 4 0 29 -64 55 -142z"/>
<path d="M8305 2323 c-31 -8 -63 -42 -75 -79 l-11 -34 -37 30 c-88 70 -232 98
-363 71 -223 -46 -404 -254 -465 -533 -22 -99 -21 -274 1 -358 40 -155 125
-264 251 -326 66 -33 84 -38 172 -42 159 -7 253 30 364 144 l53 54 21 -47 c48
-110 132 -167 249 -167 58 0 81 5 135 31 114 54 180 127 180 199 0 62 -54 124
-108 124 -11 0 -43 -16 -71 -35 -70 -48 -100 -46 -120 8 -19 50 -12 207 20
417 68 462 64 414 43 456 -13 25 -34 45 -64 60 -45 23 -137 38 -175 27z m-220
-302 c67 -30 68 -32 49 -182 -28 -235 -73 -374 -141 -443 -89 -88 -205 -64
-250 52 -28 72 -26 273 4 367 30 94 73 159 130 195 39 25 57 30 107 30 37 0
77 -8 101 -19z"/>
<path d="M11914 2320 c-34 -11 -59 -41 -70 -84 l-6 -26 -38 30 c-65 52 -126
73 -220 78 -107 5 -180 -9 -269 -54 -130 -65 -238 -192 -299 -351 -44 -115
-56 -184 -56 -318 0 -137 17 -215 67 -309 87 -163 234 -243 433 -234 81 3 100
8 166 41 51 25 92 55 132 97 31 33 59 60 60 60 2 0 8 -19 15 -42 19 -61 104
-142 171 -162 69 -21 95 -20 169 3 114 35 199 105 222 181 15 51 5 86 -37 128
-30 30 -39 34 -71 29 -20 -4 -53 -20 -74 -37 -48 -38 -84 -39 -102 -2 -35 68
-29 178 28 549 19 122 35 249 35 281 0 51 -4 62 -27 84 -16 14 -42 33 -60 42
-40 20 -128 28 -169 16z m-208 -301 c23 -11 47 -26 53 -32 21 -26 -34 -359
-80 -482 -46 -125 -151 -190 -236 -148 -75 36 -103 107 -103 258 0 201 65 352
175 409 44 23 139 21 191 -5z"/>
<path d="M2245 2309 c-85 -14 -95 -35 -132 -269 -26 -166 -26 -542 0 -655 28
-120 76 -213 141 -273 63 -57 120 -80 216 -89 115 -10 203 32 281 134 53 68
55 63 39 -95 -23 -228 -64 -327 -147 -364 -96 -43 -199 -8 -303 103 -60 63
-69 69 -106 69 -27 0 -55 -9 -87 -30 -96 -61 -115 -150 -51 -236 70 -94 198
-175 324 -205 87 -21 262 -16 339 9 192 62 306 230 358 528 14 77 18 161 18
379 1 245 4 293 22 380 27 124 47 358 41 464 -7 126 -45 161 -175 161 -116 0
-154 -41 -187 -198 -20 -93 -36 -295 -36 -450 0 -123 -1 -126 -31 -173 -42
-66 -109 -125 -158 -140 -36 -11 -47 -10 -76 4 -70 33 -90 128 -82 390 4 130
11 208 26 272 11 50 20 115 21 146 0 48 -4 59 -28 82 -49 47 -143 70 -227 56z"/>
<path d="M3607 2309 c-50 -15 -93 -57 -106 -105 -6 -21 -22 -120 -37 -219 -35
-242 -38 -510 -6 -627 31 -115 68 -182 134 -243 74 -68 133 -90 248 -89 71 1
96 6 148 29 74 33 141 101 191 194 18 34 35 60 38 57 3 -3 0 -48 -7 -100 -11
-85 -11 -98 4 -121 32 -48 63 -60 156 -59 98 1 150 20 170 62 9 19 13 123 16
367 2 187 8 376 13 420 44 359 9 445 -179 445 -76 0 -121 -15 -156 -51 l-29
-30 -5 -277 -5 -277 -29 -70 c-86 -206 -188 -296 -283 -251 -24 11 -41 30 -56
64 -20 43 -22 62 -21 232 0 130 6 210 17 270 49 244 52 272 34 310 -10 20 -31
44 -47 54 -37 21 -150 29 -203 15z"/>
<path d="M5175 2306 c-133 -32 -251 -121 -302 -225 -24 -49 -28 -68 -28 -146
0 -180 68 -263 325 -396 139 -71 178 -102 186 -146 5 -26 1 -37 -21 -59 -25
-25 -30 -26 -113 -22 -90 5 -144 25 -254 94 -96 61 -198 -7 -198 -132 0 -48 3
-54 46 -94 97 -89 261 -140 453 -140 168 0 280 44 370 146 71 81 86 124 86
249 0 96 -3 116 -24 155 -33 64 -104 127 -215 190 -233 134 -251 145 -260 171
-22 64 23 109 109 109 52 0 109 -25 171 -76 88 -71 139 -71 203 2 70 80 67
142 -9 215 -51 50 -119 81 -230 105 -79 17 -227 17 -295 0z"/>
<path d="M9805 2309 c-85 -14 -95 -35 -132 -269 -26 -166 -26 -542 0 -655 28
-120 76 -213 141 -273 63 -57 120 -80 216 -89 115 -10 203 32 281 134 53 68
55 63 39 -95 -23 -228 -64 -327 -147 -364 -96 -43 -199 -8 -303 103 -60 63
-69 69 -106 69 -27 0 -55 -9 -87 -30 -96 -61 -115 -150 -51 -236 70 -94 198
-175 324 -205 87 -21 262 -16 339 9 192 62 306 230 358 528 14 77 18 161 18
379 1 245 4 293 22 380 27 124 47 358 41 464 -7 126 -45 161 -175 161 -116 0
-154 -41 -187 -198 -20 -93 -36 -295 -36 -450 0 -123 -1 -126 -31 -173 -42
-66 -109 -125 -158 -140 -36 -11 -47 -10 -76 4 -70 33 -90 128 -82 390 4 130
11 208 26 272 11 50 20 115 21 146 0 48 -4 59 -28 82 -49 47 -143 70 -227 56z"/>
</g>
</svg>
